<?xml version="1.0" standalone="no"?>
<!DOCTYPE svg PUBLIC "-//W3C//DTD SVG 20010904//EN"
 "http://www.w3.org/TR/2001/REC-SVG-20010904/DTD/svg10.dtd">
<svg version="1.0" xmlns="http://www.w3.org/2000/svg"
 width="700.000000pt" height="700.000000pt" viewBox="0 0 700.000000 700.000000"
 preserveAspectRatio="xMidYMid meet">
<metadata>
Created by potrace 1.14, written by Peter Selinger 2001-2017
</metadata>
<g transform="translate(0.000000,700.000000) scale(0.100000,-0.100000)"
fill="#000000" stroke="none">
<path d="M3839 5247 c-332 -329 -393 -387 -408 -387 -5 0 -117 106 -248 236
-282 280 -425 414 -459 432 -24 13 -29 10 -112 -70 -394 -379 -1992 -1975
-1992 -1990 0 -11 2100 -2111 2106 -2106 1 2 148 147 327 323 178 176 340 335
360 354 l36 34 168 -166 c478 -472 545 -537 557 -537 16 0 1880 1865 2067
2068 l31 34 -33 36 c-173 185 -2037 2023 -2073 2044 -7 4 -131 -111 -327 -305z
m-899 -356 c114 -115 216 -220 225 -235 29 -44 56 -13 -620 -701 -229 -232
-429 -437 -446 -456 l-29 -33 32 -34 c18 -19 125 -127 236 -240 282 -286 729
-746 791 -812 28 -30 51 -62 51 -70 0 -21 -124 -153 -380 -404 l-91 -90 -86
85 c-498 489 -1573 1573 -1565 1578 6 3 327 321 714 706 765 761 924 915 946
915 8 0 108 -94 222 -209z m1278 167 c96 -83 1537 -1534 1555 -1565 l18 -32
-88 -93 c-127 -134 -130 -138 -866 -881 l-671 -679 -201 203 c-215 217 -275
283 -275 303 0 24 118 147 714 746 l405 407 -301 304 c-494 499 -769 782 -795
816 -17 22 -23 39 -18 53 12 36 442 460 467 460 4 0 29 -19 56 -42z m-683
-764 c148 -140 825 -816 825 -825 0 -4 -208 -216 -461 -469 l-462 -462 -81 79
c-44 43 -83 82 -87 86 -3 5 -176 179 -385 388 l-379 381 241 236 c227 223 528
513 639 616 27 25 54 46 60 46 5 0 46 -34 90 -76z"/>
</g>
</svg>
