<?xml version="1.0" standalone="no"?>
<!DOCTYPE svg PUBLIC "-//W3C//DTD SVG 20010904//EN"
 "http://www.w3.org/TR/2001/REC-SVG-20010904/DTD/svg10.dtd">
<svg version="1.0" xmlns="http://www.w3.org/2000/svg"
 width="720.000000pt" height="720.000000pt" viewBox="0 0 720.000000 720.000000"
 preserveAspectRatio="xMidYMid meet">
<metadata>
Created by potrace 1.14, written by Peter Selinger 2001-2017
</metadata>
<g transform="translate(0.000000,720.000000) scale(0.100000,-0.100000)"
fill="#000000" stroke="none">
<path d="M3906 5354 c-312 -312 -368 -364 -383 -355 -10 5 -100 92 -200 193
-281 284 -484 477 -522 497 -21 12 -27 10 -58 -21 -355 -338 -2119 -2095
-2112 -2102 46 -51 2166 -2166 2170 -2166 3 0 170 164 370 365 200 201 369
365 375 365 6 0 175 -164 375 -365 200 -201 368 -365 372 -365 8 0 1397 1389
1870 1870 158 161 287 297 287 302 0 13 -727 736 -1920 1907 -135 132 -248
241 -253 241 -4 0 -171 -165 -371 -366z m-1045 -161 c112 -101 391 -390 410
-425 12 -23 -55 -95 -803 -851 -186 -188 -338 -345 -338 -350 0 -4 73 -81 163
-171 572 -576 960 -977 979 -1011 6 -10 -7 -32 -43 -72 -89 -99 -432 -443
-443 -443 -5 0 -391 382 -857 849 l-848 849 597 595 c769 767 1097 1087 1113
1087 3 0 34 -26 70 -57z m1524 -33 c107 -100 1337 -1331 1454 -1455 56 -60
107 -117 111 -126 6 -11 -2 -28 -31 -60 -85 -94 -570 -587 -1091 -1111 l-545
-547 -178 177 c-182 181 -315 325 -315 341 0 21 194 223 745 776 l411 412
-496 500 c-462 466 -650 662 -658 684 -7 17 49 81 203 234 160 160 244 238
272 254 21 11 22 10 118 -79z m-749 -742 c48 -46 261 -255 473 -466 l385 -383
-480 -480 -480 -480 -477 478 c-262 263 -477 481 -477 484 0 6 560 556 708
695 40 38 112 106 160 151 48 46 90 83 94 83 4 0 46 -37 94 -82z"/>
</g>
</svg>
